<svg width="230" height="47" viewBox="0 0 230 47" fill="none" xmlns="http://www.w3.org/2000/svg">
<line x1="52.0517" x2="52.0517" y2="43.0833" stroke="black"/>
<path d="M63.5941 25V8.248H65.0341V23.752H73.2421V25H63.5941ZM82.0648 25.288C80.3688 25.288 79.0408 24.72 78.0808 23.584C77.1368 22.448 76.6648 20.856 76.6648 18.808C76.6648 16.76 77.1368 15.168 78.0808 14.032C79.0408 12.896 80.3688 12.328 82.0648 12.328C83.7608 12.328 85.0808 12.896 86.0248 14.032C86.9848 15.168 87.4648 16.76 87.4648 18.808C87.4648 20.856 86.9848 22.448 86.0248 23.584C85.0808 24.72 83.7608 25.288 82.0648 25.288ZM82.0648 24.088C83.2808 24.088 84.2408 23.704 84.9448 22.936C85.6488 22.168 86.0008 21.048 86.0008 19.576V18.04C86.0008 16.568 85.6488 15.448 84.9448 14.68C84.2408 13.912 83.2808 13.528 82.0648 13.528C80.8488 13.528 79.8888 13.912 79.1848 14.68C78.4808 15.448 78.1288 16.568 78.1288 18.04V19.576C78.1288 21.048 78.4808 22.168 79.1848 22.936C79.8888 23.704 80.8488 24.088 82.0648 24.088ZM96.4554 25.288C94.7594 25.288 93.4314 24.72 92.4714 23.584C91.5274 22.448 91.0554 20.856 91.0554 18.808C91.0554 16.76 91.5274 15.168 92.4714 14.032C93.4314 12.896 94.7594 12.328 96.4554 12.328C98.1514 12.328 99.4714 12.896 100.415 14.032C101.375 15.168 101.855 16.76 101.855 18.808C101.855 20.856 101.375 22.448 100.415 23.584C99.4714 24.72 98.1514 25.288 96.4554 25.288ZM96.4554 24.088C97.6714 24.088 98.6314 23.704 99.3354 22.936C100.039 22.168 100.391 21.048 100.391 19.576V18.04C100.391 16.568 100.039 15.448 99.3354 14.68C98.6314 13.912 97.6714 13.528 96.4554 13.528C95.2394 13.528 94.2794 13.912 93.5754 14.68C92.8714 15.448 92.5194 16.568 92.5194 18.04V19.576C92.5194 21.048 92.8714 22.168 93.5754 22.936C94.2794 23.704 95.2394 24.088 96.4554 24.088ZM106.214 12.616H107.582V14.584H107.654C108.006 13.912 108.494 13.368 109.118 12.952C109.758 12.536 110.55 12.328 111.494 12.328C113.046 12.328 114.254 12.888 115.118 14.008C115.982 15.112 116.414 16.712 116.414 18.808C116.414 20.904 115.982 22.512 115.118 23.632C114.254 24.736 113.046 25.288 111.494 25.288C110.55 25.288 109.758 25.08 109.118 24.664C108.494 24.248 108.006 23.704 107.654 23.032H107.582V29.8H106.214V12.616ZM111.038 24.064C112.286 24.064 113.246 23.672 113.918 22.888C114.606 22.104 114.95 21.032 114.95 19.672V17.944C114.95 16.584 114.606 15.512 113.918 14.728C113.246 13.944 112.286 13.552 111.038 13.552C110.574 13.552 110.134 13.616 109.718 13.744C109.302 13.872 108.934 14.056 108.614 14.296C108.294 14.536 108.038 14.832 107.846 15.184C107.67 15.536 107.582 15.928 107.582 16.36V21.256C107.582 21.688 107.67 22.08 107.846 22.432C108.038 22.784 108.294 23.08 108.614 23.32C108.934 23.56 109.302 23.744 109.718 23.872C110.134 24 110.574 24.064 111.038 24.064ZM126.005 9.304C125.573 9.304 125.261 9.216 125.069 9.04C124.893 8.848 124.805 8.616 124.805 8.344V8.032C124.805 7.76 124.893 7.536 125.069 7.36C125.261 7.168 125.573 7.072 126.005 7.072C126.437 7.072 126.741 7.168 126.917 7.36C127.109 7.536 127.205 7.76 127.205 8.032V8.344C127.205 8.616 127.109 8.848 126.917 9.04C126.741 9.216 126.437 9.304 126.005 9.304ZM120.677 23.824H125.333V13.792H120.677V12.616H126.701V23.824H131.045V25H120.677V23.824ZM135.043 25V12.616H136.411V14.536H136.507C136.747 13.96 137.147 13.448 137.707 13C138.283 12.552 139.091 12.328 140.131 12.328C141.475 12.328 142.515 12.736 143.251 13.552C144.003 14.352 144.379 15.504 144.379 17.008V25H143.011V17.248C143.011 15.968 142.731 15.032 142.171 14.44C141.627 13.848 140.827 13.552 139.771 13.552C139.339 13.552 138.923 13.608 138.523 13.72C138.123 13.832 137.763 14 137.443 14.224C137.139 14.448 136.891 14.736 136.699 15.088C136.507 15.424 136.411 15.824 136.411 16.288V25H135.043ZM154.018 25.168C153.506 25.168 153.146 25.064 152.938 24.856C152.73 24.648 152.626 24.376 152.626 24.04V23.704C152.626 23.384 152.73 23.12 152.938 22.912C153.146 22.688 153.506 22.576 154.018 22.576C154.53 22.576 154.89 22.688 155.098 22.912C155.306 23.12 155.41 23.384 155.41 23.704V24.04C155.41 24.376 155.306 24.648 155.098 24.856C154.89 25.064 154.53 25.168 154.018 25.168ZM172.705 25C172.145 25 171.745 24.864 171.505 24.592C171.265 24.32 171.129 23.952 171.097 23.488V23.056H170.977C170.705 23.712 170.257 24.248 169.633 24.664C169.009 25.08 168.161 25.288 167.089 25.288C165.793 25.288 164.769 24.976 164.017 24.352C163.281 23.712 162.913 22.816 162.913 21.664C162.913 21.12 163.001 20.632 163.177 20.2C163.369 19.752 163.665 19.376 164.065 19.072C164.481 18.768 165.009 18.536 165.649 18.376C166.289 18.2 167.073 18.112 168.001 18.112H171.025V16.6C171.025 15.56 170.737 14.784 170.161 14.272C169.601 13.76 168.817 13.504 167.809 13.504C166.113 13.504 164.929 14.184 164.257 15.544L163.321 14.872C163.641 14.152 164.177 13.552 164.929 13.072C165.697 12.576 166.681 12.328 167.881 12.328C169.289 12.328 170.393 12.696 171.193 13.432C171.993 14.152 172.393 15.16 172.393 16.456V23.8H174.241V25H172.705ZM167.305 24.136C167.833 24.136 168.321 24.072 168.769 23.944C169.217 23.816 169.609 23.64 169.945 23.416C170.281 23.176 170.545 22.888 170.737 22.552C170.929 22.216 171.025 21.84 171.025 21.424V19.144H168.001C166.705 19.144 165.769 19.344 165.193 19.744C164.633 20.128 164.353 20.656 164.353 21.328V21.952C164.353 22.672 164.617 23.216 165.145 23.584C165.689 23.952 166.409 24.136 167.305 24.136ZM183.567 9.304C183.135 9.304 182.823 9.216 182.631 9.04C182.455 8.848 182.367 8.616 182.367 8.344V8.032C182.367 7.76 182.455 7.536 182.631 7.36C182.823 7.168 183.135 7.072 183.567 7.072C183.999 7.072 184.303 7.168 184.479 7.36C184.671 7.536 184.767 7.76 184.767 8.032V8.344C184.767 8.616 184.671 8.848 184.479 9.04C184.303 9.216 183.999 9.304 183.567 9.304ZM178.239 23.824H182.895V13.792H178.239V12.616H184.263V23.824H188.607V25H178.239V23.824Z" fill="black"/>
<path d="M65.2969 39.495C64.7236 39.495 64.2436 39.3883 63.8569 39.175C63.4769 38.955 63.1502 38.665 62.8769 38.305L63.3269 37.935C63.5736 38.2617 63.8502 38.515 64.1569 38.695C64.4702 38.875 64.8569 38.965 65.3169 38.965C65.8569 38.965 66.2702 38.8383 66.5569 38.585C66.8502 38.325 66.9969 37.965 66.9969 37.505C66.9969 37.0783 66.8736 36.765 66.6269 36.565C66.3802 36.365 66.0336 36.2183 65.5869 36.125L64.9669 35.995C64.3002 35.8617 63.8169 35.6383 63.5169 35.325C63.2169 35.0117 63.0669 34.6117 63.0669 34.125C63.0669 33.8183 63.1202 33.5517 63.2269 33.325C63.3336 33.0917 63.4836 32.8983 63.6769 32.745C63.8769 32.5917 64.1136 32.475 64.3869 32.395C64.6669 32.315 64.9736 32.275 65.3069 32.275C65.8269 32.275 66.2669 32.3683 66.6269 32.555C66.9869 32.7417 67.2836 33.005 67.5169 33.345L67.0669 33.675C66.8736 33.395 66.6302 33.1817 66.3369 33.035C66.0502 32.8817 65.6969 32.805 65.2769 32.805C64.7769 32.805 64.3802 32.915 64.0869 33.135C63.8002 33.3483 63.6569 33.6717 63.6569 34.105C63.6569 34.5183 63.7869 34.8217 64.0469 35.015C64.3069 35.2083 64.6536 35.3483 65.0869 35.435L65.7069 35.565C66.4002 35.7183 66.8869 35.955 67.1669 36.275C67.4469 36.595 67.5869 36.995 67.5869 37.475C67.5869 38.115 67.3836 38.6117 66.9769 38.965C66.5702 39.3183 66.0102 39.495 65.2969 39.495ZM72.2705 38.565H72.2305C72.1838 38.685 72.1205 38.8017 72.0405 38.915C71.9605 39.0283 71.8605 39.1283 71.7405 39.215C71.6205 39.295 71.4772 39.3617 71.3105 39.415C71.1505 39.4683 70.9605 39.495 70.7405 39.495C70.1938 39.495 69.7672 39.3283 69.4605 38.995C69.1538 38.655 69.0005 38.1717 69.0005 37.545V34.255H69.5705V37.435C69.5705 37.9617 69.6838 38.3517 69.9105 38.605C70.1372 38.8583 70.4638 38.985 70.8905 38.985C71.0705 38.985 71.2405 38.9617 71.4005 38.915C71.5672 38.8683 71.7138 38.7983 71.8405 38.705C71.9738 38.6117 72.0772 38.495 72.1505 38.355C72.2305 38.2083 72.2705 38.0383 72.2705 37.845V34.255H72.8405V39.375H72.2705V38.565ZM74.7053 34.255H75.2753V35.075H75.3053C75.4319 34.7883 75.6253 34.5617 75.8853 34.395C76.1453 34.2217 76.4719 34.135 76.8653 34.135C77.5253 34.135 78.0419 34.3683 78.4153 34.835C78.7886 35.3017 78.9753 35.9617 78.9753 36.815C78.9753 37.6683 78.7886 38.3283 78.4153 38.795C78.0419 39.2617 77.5253 39.495 76.8653 39.495C76.4719 39.495 76.1486 39.4117 75.8953 39.245C75.6419 39.0717 75.4453 38.8417 75.3053 38.555H75.2753V41.375H74.7053V34.255ZM76.7353 38.985C77.2486 38.985 77.6486 38.8217 77.9353 38.495C78.2219 38.1683 78.3653 37.7283 78.3653 37.175V36.455C78.3653 35.9017 78.2219 35.4617 77.9353 35.135C77.6486 34.8083 77.2486 34.645 76.7353 34.645C76.5353 34.645 76.3453 34.675 76.1653 34.735C75.9919 34.7883 75.8386 34.865 75.7053 34.965C75.5719 35.065 75.4653 35.185 75.3853 35.325C75.3119 35.465 75.2753 35.6183 75.2753 35.785V37.815C75.2753 37.995 75.3119 38.1583 75.3853 38.305C75.4653 38.445 75.5719 38.5683 75.7053 38.675C75.8386 38.775 75.9919 38.8517 76.1653 38.905C76.3453 38.9583 76.5353 38.985 76.7353 38.985ZM80.4474 34.255H81.0174V35.075H81.0474C81.1741 34.7883 81.3674 34.5617 81.6274 34.395C81.8874 34.2217 82.2141 34.135 82.6074 34.135C83.2674 34.135 83.7841 34.3683 84.1574 34.835C84.5308 35.3017 84.7174 35.9617 84.7174 36.815C84.7174 37.6683 84.5308 38.3283 84.1574 38.795C83.7841 39.2617 83.2674 39.495 82.6074 39.495C82.2141 39.495 81.8908 39.4117 81.6374 39.245C81.3841 39.0717 81.1874 38.8417 81.0474 38.555H81.0174V41.375H80.4474V34.255ZM82.4774 38.985C82.9908 38.985 83.3908 38.8217 83.6774 38.495C83.9641 38.1683 84.1074 37.7283 84.1074 37.175V36.455C84.1074 35.9017 83.9641 35.4617 83.6774 35.135C83.3908 34.8083 82.9908 34.645 82.4774 34.645C82.2774 34.645 82.0874 34.675 81.9074 34.735C81.7341 34.7883 81.5808 34.865 81.4474 34.965C81.3141 35.065 81.2074 35.185 81.1274 35.325C81.0541 35.465 81.0174 35.6183 81.0174 35.785V37.815C81.0174 37.995 81.0541 38.1583 81.1274 38.305C81.2074 38.445 81.3141 38.5683 81.4474 38.675C81.5808 38.775 81.7341 38.8517 81.9074 38.905C82.0874 38.9583 82.2774 38.985 82.4774 38.985ZM88.0096 39.495C87.6696 39.495 87.363 39.435 87.0896 39.315C86.8163 39.195 86.583 39.0217 86.3896 38.795C86.1963 38.5617 86.0463 38.2783 85.9396 37.945C85.833 37.6117 85.7796 37.235 85.7796 36.815C85.7796 36.395 85.833 36.0217 85.9396 35.695C86.0463 35.3617 86.1963 35.0817 86.3896 34.855C86.583 34.6217 86.8163 34.445 87.0896 34.325C87.363 34.1983 87.6696 34.135 88.0096 34.135C88.3496 34.135 88.6563 34.1983 88.9296 34.325C89.203 34.445 89.4363 34.6217 89.6296 34.855C89.823 35.0817 89.973 35.3617 90.0796 35.695C90.1863 36.0217 90.2396 36.395 90.2396 36.815C90.2396 37.235 90.1863 37.6117 90.0796 37.945C89.973 38.2783 89.823 38.5617 89.6296 38.795C89.4363 39.0217 89.203 39.195 88.9296 39.315C88.6563 39.435 88.3496 39.495 88.0096 39.495ZM88.0096 38.985C88.5096 38.985 88.903 38.8283 89.1896 38.515C89.483 38.2017 89.6296 37.7417 89.6296 37.135V36.495C89.6296 35.895 89.483 35.4383 89.1896 35.125C88.903 34.805 88.5096 34.645 88.0096 34.645C87.5096 34.645 87.113 34.8017 86.8196 35.115C86.533 35.4283 86.3896 35.8883 86.3896 36.495V37.135C86.3896 37.735 86.533 38.195 86.8196 38.515C87.113 38.8283 87.5096 38.985 88.0096 38.985ZM91.6877 39.375V34.255H92.2577V35.175H92.2977C92.3977 34.935 92.5677 34.7217 92.8077 34.535C93.0477 34.3483 93.3877 34.255 93.8277 34.255H94.1677V34.815H93.7177C93.291 34.815 92.941 34.9083 92.6677 35.095C92.3943 35.2817 92.2577 35.5417 92.2577 35.875V39.375H91.6877ZM96.22 39.375C96.0134 39.375 95.8567 39.3183 95.75 39.205C95.6434 39.0917 95.59 38.9383 95.59 38.745V34.755H94.7V34.255H95.28C95.42 34.255 95.5134 34.2283 95.56 34.175C95.6134 34.115 95.64 34.0117 95.64 33.865V32.825H96.16V34.255H97.32V34.755H96.16V38.875H97.24V39.375H96.22ZM102.963 39.495C102.39 39.495 101.91 39.3883 101.523 39.175C101.143 38.955 100.816 38.665 100.543 38.305L100.993 37.935C101.24 38.2617 101.516 38.515 101.823 38.695C102.136 38.875 102.523 38.965 102.983 38.965C103.523 38.965 103.936 38.8383 104.223 38.585C104.516 38.325 104.663 37.965 104.663 37.505C104.663 37.0783 104.54 36.765 104.293 36.565C104.046 36.365 103.7 36.2183 103.253 36.125L102.633 35.995C101.966 35.8617 101.483 35.6383 101.183 35.325C100.883 35.0117 100.733 34.6117 100.733 34.125C100.733 33.8183 100.786 33.5517 100.893 33.325C101 33.0917 101.15 32.8983 101.343 32.745C101.543 32.5917 101.78 32.475 102.053 32.395C102.333 32.315 102.64 32.275 102.973 32.275C103.493 32.275 103.933 32.3683 104.293 32.555C104.653 32.7417 104.95 33.005 105.183 33.345L104.733 33.675C104.54 33.395 104.296 33.1817 104.003 33.035C103.716 32.8817 103.363 32.805 102.943 32.805C102.443 32.805 102.046 32.915 101.753 33.135C101.466 33.3483 101.323 33.6717 101.323 34.105C101.323 34.5183 101.453 34.8217 101.713 35.015C101.973 35.2083 102.32 35.3483 102.753 35.435L103.373 35.565C104.066 35.7183 104.553 35.955 104.833 36.275C105.113 36.595 105.253 36.995 105.253 37.475C105.253 38.115 105.05 38.6117 104.643 38.965C104.236 39.3183 103.676 39.495 102.963 39.495ZM106.737 39.375V34.255H107.307V35.065H107.337C107.39 34.9383 107.457 34.8217 107.537 34.715C107.617 34.6017 107.713 34.5017 107.827 34.415C107.94 34.3283 108.073 34.2617 108.227 34.215C108.387 34.1617 108.573 34.135 108.787 34.135C109.153 34.135 109.477 34.2217 109.757 34.395C110.037 34.5683 110.24 34.8417 110.367 35.215H110.397C110.49 34.915 110.667 34.6617 110.927 34.455C111.193 34.2417 111.553 34.135 112.007 34.135C112.553 34.135 112.973 34.305 113.267 34.645C113.56 34.9783 113.707 35.4583 113.707 36.085V39.375H113.137V36.185C113.137 35.1583 112.707 34.645 111.847 34.645C111.667 34.645 111.497 34.6683 111.337 34.715C111.177 34.7617 111.033 34.835 110.907 34.935C110.787 35.0283 110.69 35.1483 110.617 35.295C110.543 35.435 110.507 35.5983 110.507 35.785V39.375H109.937V36.185C109.937 35.1583 109.51 34.645 108.657 34.645C108.483 34.645 108.313 34.6683 108.147 34.715C107.987 34.7617 107.843 34.8317 107.717 34.925C107.59 35.0183 107.49 35.1383 107.417 35.285C107.343 35.425 107.307 35.5883 107.307 35.775V39.375H106.737ZM119.016 39.375C118.796 39.375 118.636 39.3183 118.536 39.205C118.436 39.0917 118.38 38.9383 118.366 38.745V38.565H118.316C118.203 38.8517 118.016 39.0783 117.756 39.245C117.496 39.4117 117.166 39.495 116.766 39.495C116.226 39.495 115.81 39.365 115.516 39.105C115.223 38.8383 115.076 38.465 115.076 37.985C115.076 37.5317 115.236 37.1717 115.556 36.905C115.883 36.6383 116.416 36.505 117.156 36.505H118.336V35.905C118.336 35.0583 117.9 34.635 117.026 34.635C116.686 34.635 116.403 34.7083 116.176 34.855C115.95 34.995 115.766 35.1983 115.626 35.465L115.266 35.165C115.406 34.865 115.62 34.6183 115.906 34.425C116.2 34.2317 116.58 34.135 117.046 34.135C117.646 34.135 118.106 34.285 118.426 34.585C118.746 34.885 118.906 35.305 118.906 35.845V38.875H119.596V39.375H119.016ZM116.846 39.005C117.053 39.005 117.246 38.9783 117.426 38.925C117.606 38.8717 117.763 38.7983 117.896 38.705C118.036 38.605 118.143 38.4883 118.216 38.355C118.296 38.215 118.336 38.0583 118.336 37.885V36.935H117.136C116.623 36.935 116.25 37.0183 116.016 37.185C115.79 37.345 115.676 37.5683 115.676 37.855V38.095C115.676 38.395 115.783 38.6217 115.996 38.775C116.21 38.9283 116.493 39.005 116.846 39.005ZM120.77 39.375V34.255H121.34V35.175H121.38C121.48 34.935 121.65 34.7217 121.89 34.535C122.13 34.3483 122.47 34.255 122.91 34.255H123.25V34.815H122.8C122.373 34.815 122.023 34.9083 121.75 35.095C121.476 35.2817 121.34 35.5417 121.34 35.875V39.375H120.77ZM125.302 39.375C125.095 39.375 124.939 39.3183 124.832 39.205C124.725 39.0917 124.672 38.9383 124.672 38.745V34.755H123.782V34.255H124.362C124.502 34.255 124.595 34.2283 124.642 34.175C124.695 34.115 124.722 34.0117 124.722 33.865V32.825H125.242V34.255H126.402V34.755H125.242V38.875H126.322V39.375H125.302ZM129.563 39.495C129.223 39.495 128.913 39.435 128.633 39.315C128.359 39.195 128.123 39.0217 127.923 38.795C127.729 38.5617 127.579 38.2783 127.473 37.945C127.373 37.6117 127.323 37.235 127.323 36.815C127.323 36.395 127.373 36.0217 127.473 35.695C127.579 35.3617 127.729 35.0817 127.923 34.855C128.123 34.6217 128.359 34.445 128.633 34.325C128.906 34.1983 129.213 34.135 129.553 34.135C129.879 34.135 130.176 34.1983 130.443 34.325C130.709 34.445 130.936 34.615 131.123 34.835C131.309 35.055 131.453 35.3217 131.553 35.635C131.659 35.9417 131.713 36.2817 131.713 36.655V36.925H127.923V37.175C127.923 37.4417 127.959 37.6883 128.033 37.915C128.113 38.135 128.223 38.325 128.363 38.485C128.509 38.645 128.686 38.7717 128.893 38.865C129.099 38.9517 129.333 38.995 129.593 38.995C130.339 38.995 130.856 38.6517 131.143 37.965L131.563 38.245C131.403 38.625 131.149 38.9283 130.803 39.155C130.463 39.3817 130.049 39.495 129.563 39.495ZM129.553 34.615C129.306 34.615 129.083 34.6617 128.883 34.755C128.683 34.8417 128.509 34.965 128.363 35.125C128.223 35.285 128.113 35.4783 128.033 35.705C127.959 35.925 127.923 36.1683 127.923 36.435V36.485H131.093V36.405C131.093 36.1383 131.056 35.895 130.983 35.675C130.909 35.4483 130.803 35.2583 130.663 35.105C130.529 34.9517 130.366 34.8317 130.173 34.745C129.986 34.6583 129.779 34.615 129.553 34.615ZM133.162 39.375V34.255H133.732V35.175H133.772C133.872 34.935 134.042 34.7217 134.282 34.535C134.522 34.3483 134.862 34.255 135.302 34.255H135.642V34.815H135.192C134.766 34.815 134.416 34.9083 134.142 35.095C133.869 35.2817 133.732 35.5417 133.732 35.875V39.375H133.162ZM136.345 39.465C136.178 39.465 136.055 39.425 135.975 39.345C135.901 39.2583 135.865 39.1483 135.865 39.015V38.905C135.865 38.7717 135.901 38.665 135.975 38.585C136.055 38.4983 136.178 38.455 136.345 38.455C136.505 38.455 136.625 38.4983 136.705 38.585C136.785 38.665 136.825 38.7717 136.825 38.905V39.015C136.825 39.1483 136.785 39.2583 136.705 39.345C136.625 39.425 136.505 39.465 136.345 39.465ZM142.846 39.495C142.272 39.495 141.792 39.3883 141.406 39.175C141.026 38.955 140.699 38.665 140.426 38.305L140.876 37.935C141.122 38.2617 141.399 38.515 141.706 38.695C142.019 38.875 142.406 38.965 142.866 38.965C143.406 38.965 143.819 38.8383 144.106 38.585C144.399 38.325 144.546 37.965 144.546 37.505C144.546 37.0783 144.422 36.765 144.176 36.565C143.929 36.365 143.582 36.2183 143.136 36.125L142.516 35.995C141.849 35.8617 141.366 35.6383 141.066 35.325C140.766 35.0117 140.616 34.6117 140.616 34.125C140.616 33.8183 140.669 33.5517 140.776 33.325C140.882 33.0917 141.032 32.8983 141.226 32.745C141.426 32.5917 141.662 32.475 141.936 32.395C142.216 32.315 142.522 32.275 142.856 32.275C143.376 32.275 143.816 32.3683 144.176 32.555C144.536 32.7417 144.832 33.005 145.066 33.345L144.616 33.675C144.422 33.395 144.179 33.1817 143.886 33.035C143.599 32.8817 143.246 32.805 142.826 32.805C142.326 32.805 141.929 32.915 141.636 33.135C141.349 33.3483 141.206 33.6717 141.206 34.105C141.206 34.5183 141.336 34.8217 141.596 35.015C141.856 35.2083 142.202 35.3483 142.636 35.435L143.256 35.565C143.949 35.7183 144.436 35.955 144.716 36.275C144.996 36.595 145.136 36.995 145.136 37.475C145.136 38.115 144.932 38.6117 144.526 38.965C144.119 39.3183 143.559 39.495 142.846 39.495ZM148.419 39.495C147.713 39.495 147.166 39.2617 146.779 38.795C146.399 38.3283 146.209 37.6683 146.209 36.815C146.209 35.9617 146.399 35.3017 146.779 34.835C147.166 34.3683 147.713 34.135 148.419 34.135C148.893 34.135 149.276 34.2383 149.569 34.445C149.863 34.6517 150.086 34.925 150.239 35.265L149.759 35.505C149.639 35.225 149.469 35.0117 149.249 34.865C149.036 34.7183 148.759 34.645 148.419 34.645C147.899 34.645 147.503 34.8117 147.229 35.145C146.956 35.4783 146.819 35.915 146.819 36.455V37.175C146.819 37.715 146.956 38.1517 147.229 38.485C147.503 38.8183 147.899 38.985 148.419 38.985C148.773 38.985 149.069 38.9083 149.309 38.755C149.549 38.6017 149.743 38.3817 149.889 38.095L150.309 38.375C150.143 38.715 149.903 38.9883 149.589 39.195C149.283 39.395 148.893 39.495 148.419 39.495ZM155.1 39.375C154.88 39.375 154.72 39.3183 154.62 39.205C154.52 39.0917 154.464 38.9383 154.45 38.745V38.565H154.4C154.287 38.8517 154.1 39.0783 153.84 39.245C153.58 39.4117 153.25 39.495 152.85 39.495C152.31 39.495 151.894 39.365 151.6 39.105C151.307 38.8383 151.16 38.465 151.16 37.985C151.16 37.5317 151.32 37.1717 151.64 36.905C151.967 36.6383 152.5 36.505 153.24 36.505H154.42V35.905C154.42 35.0583 153.984 34.635 153.11 34.635C152.77 34.635 152.487 34.7083 152.26 34.855C152.034 34.995 151.85 35.1983 151.71 35.465L151.35 35.165C151.49 34.865 151.704 34.6183 151.99 34.425C152.284 34.2317 152.664 34.135 153.13 34.135C153.73 34.135 154.19 34.285 154.51 34.585C154.83 34.885 154.99 35.305 154.99 35.845V38.875H155.68V39.375H155.1ZM152.93 39.005C153.137 39.005 153.33 38.9783 153.51 38.925C153.69 38.8717 153.847 38.7983 153.98 38.705C154.12 38.605 154.227 38.4883 154.3 38.355C154.38 38.215 154.42 38.0583 154.42 37.885V36.935H153.22C152.707 36.935 152.334 37.0183 152.1 37.185C151.874 37.345 151.76 37.5683 151.76 37.855V38.095C151.76 38.395 151.867 38.6217 152.08 38.775C152.294 38.9283 152.577 39.005 152.93 39.005ZM157.484 39.375C157.277 39.375 157.12 39.3183 157.014 39.205C156.907 39.0917 156.854 38.9417 156.854 38.755V31.975H157.424V38.875H158.214V39.375H157.484ZM161.32 39.495C160.98 39.495 160.67 39.435 160.39 39.315C160.117 39.195 159.88 39.0217 159.68 38.795C159.487 38.5617 159.337 38.2783 159.23 37.945C159.13 37.6117 159.08 37.235 159.08 36.815C159.08 36.395 159.13 36.0217 159.23 35.695C159.337 35.3617 159.487 35.0817 159.68 34.855C159.88 34.6217 160.117 34.445 160.39 34.325C160.664 34.1983 160.97 34.135 161.31 34.135C161.637 34.135 161.934 34.1983 162.2 34.325C162.467 34.445 162.694 34.615 162.88 34.835C163.067 35.055 163.21 35.3217 163.31 35.635C163.417 35.9417 163.47 36.2817 163.47 36.655V36.925H159.68V37.175C159.68 37.4417 159.717 37.6883 159.79 37.915C159.87 38.135 159.98 38.325 160.12 38.485C160.267 38.645 160.444 38.7717 160.65 38.865C160.857 38.9517 161.09 38.995 161.35 38.995C162.097 38.995 162.614 38.6517 162.9 37.965L163.32 38.245C163.16 38.625 162.907 38.9283 162.56 39.155C162.22 39.3817 161.807 39.495 161.32 39.495ZM161.31 34.615C161.064 34.615 160.84 34.6617 160.64 34.755C160.44 34.8417 160.267 34.965 160.12 35.125C159.98 35.285 159.87 35.4783 159.79 35.705C159.717 35.925 159.68 36.1683 159.68 36.435V36.485H162.85V36.405C162.85 36.1383 162.814 35.895 162.74 35.675C162.667 35.4483 162.56 35.2583 162.42 35.105C162.287 34.9517 162.124 34.8317 161.93 34.745C161.744 34.6583 161.537 34.615 161.31 34.615ZM169.193 39.495C168.62 39.495 168.14 39.3883 167.753 39.175C167.373 38.955 167.047 38.665 166.773 38.305L167.223 37.935C167.47 38.2617 167.747 38.515 168.053 38.695C168.367 38.875 168.753 38.965 169.213 38.965C169.753 38.965 170.167 38.8383 170.453 38.585C170.747 38.325 170.893 37.965 170.893 37.505C170.893 37.0783 170.77 36.765 170.523 36.565C170.277 36.365 169.93 36.2183 169.483 36.125L168.863 35.995C168.197 35.8617 167.713 35.6383 167.413 35.325C167.113 35.0117 166.963 34.6117 166.963 34.125C166.963 33.8183 167.017 33.5517 167.123 33.325C167.23 33.0917 167.38 32.8983 167.573 32.745C167.773 32.5917 168.01 32.475 168.283 32.395C168.563 32.315 168.87 32.275 169.203 32.275C169.723 32.275 170.163 32.3683 170.523 32.555C170.883 32.7417 171.18 33.005 171.413 33.345L170.963 33.675C170.77 33.395 170.527 33.1817 170.233 33.035C169.947 32.8817 169.593 32.805 169.173 32.805C168.673 32.805 168.277 32.915 167.983 33.135C167.697 33.3483 167.553 33.6717 167.553 34.105C167.553 34.5183 167.683 34.8217 167.943 35.015C168.203 35.2083 168.55 35.3483 168.983 35.435L169.603 35.565C170.297 35.7183 170.783 35.955 171.063 36.275C171.343 36.595 171.483 36.995 171.483 37.475C171.483 38.115 171.28 38.6117 170.873 38.965C170.467 39.3183 169.907 39.495 169.193 39.495ZM173.247 32.865C173.114 32.865 173.014 32.8317 172.947 32.765C172.887 32.6983 172.857 32.6117 172.857 32.505V32.405C172.857 32.2983 172.887 32.2117 172.947 32.145C173.014 32.0783 173.114 32.045 173.247 32.045C173.38 32.045 173.477 32.0783 173.537 32.145C173.604 32.2117 173.637 32.2983 173.637 32.405V32.505C173.637 32.6117 173.604 32.6983 173.537 32.765C173.477 32.8317 173.38 32.865 173.247 32.865ZM172.967 34.255H173.537V39.375H172.967V34.255ZM175.399 39.375V34.255H175.969V35.065H175.999C176.052 34.9383 176.119 34.8217 176.199 34.715C176.279 34.6017 176.375 34.5017 176.489 34.415C176.602 34.3283 176.735 34.2617 176.889 34.215C177.049 34.1617 177.235 34.135 177.449 34.135C177.815 34.135 178.139 34.2217 178.419 34.395C178.699 34.5683 178.902 34.8417 179.029 35.215H179.059C179.152 34.915 179.329 34.6617 179.589 34.455C179.855 34.2417 180.215 34.135 180.669 34.135C181.215 34.135 181.635 34.305 181.929 34.645C182.222 34.9783 182.369 35.4583 182.369 36.085V39.375H181.799V36.185C181.799 35.1583 181.369 34.645 180.509 34.645C180.329 34.645 180.159 34.6683 179.999 34.715C179.839 34.7617 179.695 34.835 179.569 34.935C179.449 35.0283 179.352 35.1483 179.279 35.295C179.205 35.435 179.169 35.5983 179.169 35.785V39.375H178.599V36.185C178.599 35.1583 178.172 34.645 177.319 34.645C177.145 34.645 176.975 34.6683 176.809 34.715C176.649 34.7617 176.505 34.8317 176.379 34.925C176.252 35.0183 176.152 35.1383 176.079 35.285C176.005 35.425 175.969 35.5883 175.969 35.775V39.375H175.399ZM184.158 34.255H184.728V35.075H184.758C184.885 34.7883 185.078 34.5617 185.338 34.395C185.598 34.2217 185.925 34.135 186.318 34.135C186.978 34.135 187.495 34.3683 187.868 34.835C188.242 35.3017 188.428 35.9617 188.428 36.815C188.428 37.6683 188.242 38.3283 187.868 38.795C187.495 39.2617 186.978 39.495 186.318 39.495C185.925 39.495 185.602 39.4117 185.348 39.245C185.095 39.0717 184.898 38.8417 184.758 38.555H184.728V41.375H184.158V34.255ZM186.188 38.985C186.702 38.985 187.102 38.8217 187.388 38.495C187.675 38.1683 187.818 37.7283 187.818 37.175V36.455C187.818 35.9017 187.675 35.4617 187.388 35.135C187.102 34.8083 186.702 34.645 186.188 34.645C185.988 34.645 185.798 34.675 185.618 34.735C185.445 34.7883 185.292 34.865 185.158 34.965C185.025 35.065 184.918 35.185 184.838 35.325C184.765 35.465 184.728 35.6183 184.728 35.785V37.815C184.728 37.995 184.765 38.1583 184.838 38.305C184.918 38.445 185.025 38.5683 185.158 38.675C185.292 38.775 185.445 38.8517 185.618 38.905C185.798 38.9583 185.988 38.985 186.188 38.985ZM190.531 39.375C190.324 39.375 190.167 39.3183 190.061 39.205C189.954 39.0917 189.901 38.9417 189.901 38.755V31.975H190.471V38.875H191.261V39.375H190.531ZM194.367 39.495C194.027 39.495 193.717 39.435 193.437 39.315C193.164 39.195 192.927 39.0217 192.727 38.795C192.534 38.5617 192.384 38.2783 192.277 37.945C192.177 37.6117 192.127 37.235 192.127 36.815C192.127 36.395 192.177 36.0217 192.277 35.695C192.384 35.3617 192.534 35.0817 192.727 34.855C192.927 34.6217 193.164 34.445 193.437 34.325C193.711 34.1983 194.017 34.135 194.357 34.135C194.684 34.135 194.981 34.1983 195.247 34.325C195.514 34.445 195.741 34.615 195.927 34.835C196.114 35.055 196.257 35.3217 196.357 35.635C196.464 35.9417 196.517 36.2817 196.517 36.655V36.925H192.727V37.175C192.727 37.4417 192.764 37.6883 192.837 37.915C192.917 38.135 193.027 38.325 193.167 38.485C193.314 38.645 193.491 38.7717 193.697 38.865C193.904 38.9517 194.137 38.995 194.397 38.995C195.144 38.995 195.661 38.6517 195.947 37.965L196.367 38.245C196.207 38.625 195.954 38.9283 195.607 39.155C195.267 39.3817 194.854 39.495 194.367 39.495ZM194.357 34.615C194.111 34.615 193.887 34.6617 193.687 34.755C193.487 34.8417 193.314 34.965 193.167 35.125C193.027 35.285 192.917 35.4783 192.837 35.705C192.764 35.925 192.727 36.1683 192.727 36.435V36.485H195.897V36.405C195.897 36.1383 195.861 35.895 195.787 35.675C195.714 35.4483 195.607 35.2583 195.467 35.105C195.334 34.9517 195.171 34.8317 194.977 34.745C194.791 34.6583 194.584 34.615 194.357 34.615ZM197.967 39.375V34.255H198.537V35.175H198.577C198.677 34.935 198.847 34.7217 199.087 34.535C199.327 34.3483 199.667 34.255 200.107 34.255H200.447V34.815H199.997C199.57 34.815 199.22 34.9083 198.947 35.095C198.674 35.2817 198.537 35.5417 198.537 35.875V39.375H197.967Z" fill="black"/>
<path d="M23.7931 43.0833C34.7436 43.0833 43.6207 34.3156 43.6207 23.5C43.6207 12.6844 34.7436 3.91666 23.7931 3.91666C12.8426 3.91666 3.96552 12.6844 3.96552 23.5C3.96552 34.3156 12.8426 43.0833 23.7931 43.0833Z" stroke="#1E1E1E" stroke-linecap="round" stroke-linejoin="round"/>
<path d="M11.7726 28.8854V21.5417C11.7726 18.6201 12.9868 15.8183 15.1482 13.7524C17.3095 11.6866 20.2409 10.526 23.2974 10.526C26.354 10.526 29.2853 11.6866 31.4467 13.7524C33.608 15.8183 34.8222 18.6201 34.8222 21.5417V28.8854M34.8222 30.1094C34.8222 30.7586 34.5524 31.3812 34.0721 31.8403C33.5918 32.2994 32.9404 32.5573 32.2611 32.5573H30.9806C30.3014 32.5573 29.65 32.2994 29.1697 31.8403C28.6894 31.3812 28.4195 30.7586 28.4195 30.1094V26.4375C28.4195 25.7883 28.6894 25.1656 29.1697 24.7066C29.65 24.2475 30.3014 23.9896 30.9806 23.9896H34.8222V30.1094ZM11.7726 30.1094C11.7726 30.7586 12.0425 31.3812 12.5227 31.8403C13.003 32.2994 13.6545 32.5573 14.3337 32.5573H15.6142C16.2935 32.5573 16.9449 32.2994 17.4252 31.8403C17.9055 31.3812 18.1753 30.7586 18.1753 30.1094V26.4375C18.1753 25.7883 17.9055 25.1656 17.4252 24.7066C16.9449 24.2475 16.2935 23.9896 15.6142 23.9896H11.7726V30.1094Z" stroke="#1E1E1E" stroke-linecap="round" stroke-linejoin="round"/>
<path d="M11.7726 28.8854V21.5417C11.7726 18.6201 12.9868 15.8183 15.1482 13.7524C17.3095 11.6866 20.2409 10.526 23.2974 10.526C26.354 10.526 29.2853 11.6866 31.4467 13.7524C33.608 15.8183 34.8222 18.6201 34.8222 21.5417V28.8854M34.8222 30.1094C34.8222 30.7586 34.5524 31.3812 34.0721 31.8403C33.5918 32.2994 32.9404 32.5573 32.2611 32.5573H30.9806C30.3014 32.5573 29.65 32.2994 29.1697 31.8403C28.6894 31.3812 28.4195 30.7586 28.4195 30.1094V26.4375C28.4195 25.7883 28.6894 25.1656 29.1697 24.7066C29.65 24.2475 30.3014 23.9896 30.9806 23.9896H34.8222V30.1094ZM11.7726 30.1094C11.7726 30.7586 12.0425 31.3812 12.5227 31.8403C13.003 32.2994 13.6545 32.5573 14.3337 32.5573H15.6142C16.2935 32.5573 16.9449 32.2994 17.4252 31.8403C17.9055 31.3812 18.1753 30.7586 18.1753 30.1094V26.4375C18.1753 25.7883 17.9055 25.1656 17.4252 24.7066C16.9449 24.2475 16.2935 23.9896 15.6142 23.9896H11.7726V30.1094Z" stroke="black" stroke-opacity="0.2" stroke-linecap="round" stroke-linejoin="round"/>
<line y1="-0.5" x2="9.1348" y2="-0.5" transform="matrix(-0.97675 0.214382 -0.219507 -0.975611 32.7155 32.3125)" stroke="black"/>
<path d="M19.5797 31.6597V25.7847C19.5797 25.6052 19.6525 25.4515 19.7982 25.3237C19.9438 25.1959 20.1188 25.1319 20.3233 25.1319H26.2716C26.476 25.1319 26.6511 25.1959 26.7967 25.3237C26.9423 25.4515 27.0151 25.6052 27.0151 25.7847V29.7014C27.0151 29.8809 26.9423 30.0346 26.7967 30.1624C26.6511 30.2902 26.476 30.3542 26.2716 30.3542H21.0668L19.5797 31.6597ZM20.7508 29.7014H26.2716V25.7847H20.3233V30.0686L20.7508 29.7014Z" fill="#1D1B20"/>
<rect x="20.819" y="27.4167" width="0.991379" height="0.979167" rx="0.489583" fill="black"/>
<rect x="22.8017" y="27.4167" width="0.991379" height="0.979167" rx="0.489583" fill="black"/>
<rect x="24.7845" y="27.4167" width="0.991379" height="0.979167" rx="0.489583" fill="black"/>
<path d="M19.5797 31.6597V25.7847C19.5797 25.6052 19.6525 25.4515 19.7982 25.3237C19.9438 25.1959 20.1188 25.1319 20.3233 25.1319H26.2716C26.476 25.1319 26.6511 25.1959 26.7967 25.3237C26.9423 25.4515 27.0151 25.6052 27.0151 25.7847V29.7014C27.0151 29.8809 26.9423 30.0346 26.7967 30.1624C26.6511 30.2902 26.476 30.3542 26.2716 30.3542H21.0668L19.5797 31.6597ZM20.7508 29.7014H26.2716V25.7847H20.3233V30.0686L20.7508 29.7014Z" fill="#1D1B20"/>
<rect x="20.819" y="27.4167" width="0.991379" height="0.979167" rx="0.489583" fill="black"/>
<rect x="22.8017" y="27.4167" width="0.991379" height="0.979167" rx="0.489583" fill="black"/>
<rect x="24.7845" y="27.4167" width="0.991379" height="0.979167" rx="0.489583" fill="black"/>
<rect x="21.8103" y="33.2917" width="2.97414" height="1.95833" rx="0.979167" fill="black"/>
<rect x="21.8103" y="33.2917" width="2.97414" height="1.95833" rx="0.979167" fill="black"/>
<rect x="21.8103" y="33.2917" width="2.97414" height="1.95833" rx="0.979167" fill="black"/>
</svg>
