<svg width="48" height="48" viewBox="0 0 48 48" fill="none" xmlns="http://www.w3.org/2000/svg">
<path d="M24 44C35.0457 44 44 35.0457 44 24C44 12.9543 35.0457 4 24 4C12.9543 4 4 12.9543 4 24C4 35.0457 12.9543 44 24 44Z" stroke="white" stroke-linecap="round" stroke-linejoin="round"/>
<path d="M11.875 29.5V22C11.875 19.0163 13.0998 16.1548 15.2799 14.045C17.46 11.9353 20.4169 10.75 23.5 10.75C26.5831 10.75 29.54 11.9353 31.7201 14.045C33.9002 16.1548 35.125 19.0163 35.125 22V29.5M35.125 30.75C35.125 31.413 34.8528 32.0489 34.3684 32.5178C33.8839 32.9866 33.2268 33.25 32.5417 33.25H31.25C30.5649 33.25 29.9078 32.9866 29.4233 32.5178C28.9388 32.0489 28.6667 31.413 28.6667 30.75V27C28.6667 26.337 28.9388 25.7011 29.4233 25.2322C29.9078 24.7634 30.5649 24.5 31.25 24.5H35.125V30.75ZM11.875 30.75C11.875 31.413 12.1472 32.0489 12.6316 32.5178C13.1161 32.9866 13.7732 33.25 14.4583 33.25H15.75C16.4351 33.25 17.0922 32.9866 17.5767 32.5178C18.0612 32.0489 18.3333 31.413 18.3333 30.75V27C18.3333 26.337 18.0612 25.7011 17.5767 25.2322C17.0922 24.7634 16.4351 24.5 15.75 24.5H11.875V30.75Z" stroke="white" stroke-linecap="round" stroke-linejoin="round"/>
<path d="M11.875 29.5V22C11.875 19.0163 13.0998 16.1548 15.2799 14.045C17.46 11.9353 20.4169 10.75 23.5 10.75C26.5831 10.75 29.54 11.9353 31.7201 14.045C33.9002 16.1548 35.125 19.0163 35.125 22V29.5M35.125 30.75C35.125 31.413 34.8528 32.0489 34.3684 32.5178C33.8839 32.9866 33.2268 33.25 32.5417 33.25H31.25C30.5649 33.25 29.9078 32.9866 29.4233 32.5178C28.9388 32.0489 28.6667 31.413 28.6667 30.75V27C28.6667 26.337 28.9388 25.7011 29.4233 25.2322C29.9078 24.7634 30.5649 24.5 31.25 24.5H35.125V30.75ZM11.875 30.75C11.875 31.413 12.1472 32.0489 12.6316 32.5178C13.1161 32.9866 13.7732 33.25 14.4583 33.25H15.75C16.4351 33.25 17.0922 32.9866 17.5767 32.5178C18.0612 32.0489 18.3333 31.413 18.3333 30.75V27C18.3333 26.337 18.0612 25.7011 17.5767 25.2322C17.0922 24.7634 16.4351 24.5 15.75 24.5H11.875V30.75Z" stroke="white" stroke-opacity="0.2" stroke-linecap="round" stroke-linejoin="round"/>
<line x1="33.1085" y1="33.4881" x2="24.1085" y2="35.4881" stroke="white"/>
<path d="M19.75 32.3333V26.3333C19.75 26.15 19.8234 25.9931 19.9703 25.8625C20.1172 25.7319 20.2937 25.6667 20.5 25.6667H26.5C26.7063 25.6667 26.8828 25.7319 27.0297 25.8625C27.1766 25.9931 27.25 26.15 27.25 26.3333V30.3333C27.25 30.5167 27.1766 30.6736 27.0297 30.8042C26.8828 30.9347 26.7063 31 26.5 31H21.25L19.75 32.3333ZM20.9313 30.3333H26.5V26.3333H20.5V30.7083L20.9313 30.3333Z" fill="white"/>
<rect x="21" y="28" width="1" height="1" rx="0.5" fill="white"/>
<rect x="23" y="28" width="1" height="1" rx="0.5" fill="white"/>
<rect x="25" y="28" width="1" height="1" rx="0.5" fill="white"/>
<path d="M19.75 32.3333V26.3333C19.75 26.15 19.8234 25.9931 19.9703 25.8625C20.1172 25.7319 20.2937 25.6667 20.5 25.6667H26.5C26.7063 25.6667 26.8828 25.7319 27.0297 25.8625C27.1766 25.9931 27.25 26.15 27.25 26.3333V30.3333C27.25 30.5167 27.1766 30.6736 27.0297 30.8042C26.8828 30.9347 26.7063 31 26.5 31H21.25L19.75 32.3333ZM20.9313 30.3333H26.5V26.3333H20.5V30.7083L20.9313 30.3333Z" fill="white"/>
<rect x="21" y="28" width="1" height="1" rx="0.5" fill="white"/>
<rect x="23" y="28" width="1" height="1" rx="0.5" fill="white"/>
<rect x="25" y="28" width="1" height="1" rx="0.5" fill="white"/>
<rect x="22" y="34" width="3" height="2" rx="1" fill="white"/>
<rect x="22" y="34" width="3" height="2" rx="1" fill="white"/>
<rect x="22" y="34" width="3" height="2" rx="1" fill="white"/>
</svg>
